<svg width="145" height="145" viewBox="0 0 145 145" fill="none" xmlns="http://www.w3.org/2000/svg">
<path d="M78.5764 33.8683L75.0818 55.9078M85.3649 35.5801L77.9911 56.6414M91.7386 38.4766L80.7227 57.8828M97.4928 42.4645L83.1888 59.5919M102.442 47.4158L85.3101 61.7139M106.428 53.1713L87.0183 64.1805M109.323 59.5461L88.2587 66.9126M111.032 66.3352L88.9913 69.8222M111.502 73.3204L89.1926 72.8158M110.717 80.2772L88.8562 75.7973M108.702 86.9821L87.9928 78.6708M105.523 93.2195L86.6301 81.344M101.28 98.7889L84.8121 83.7309M96.1121 103.511L82.5971 85.7548M90.1835 107.235L80.0563 87.3507M83.6853 109.84L77.2713 88.4673M76.8264 111.244L74.3318 89.0686M69.8271 111.399L71.3321 89.1354M62.9125 110.303L68.3687 88.6655M56.3048 107.99L65.5368 87.674M50.2163 104.533L62.9275 86.1929M44.8428 100.046L60.6245 84.2696M40.357 94.6707L58.702 81.966M36.903 88.5811L57.2218 79.3561M34.5919 81.9725L56.2313 76.5239M33.4979 75.0576L55.7624 73.5603M33.6562 68.0583L55.8303 70.5607M35.0617 61.1999L56.4326 67.6213M37.6693 54.7026L57.5501 64.8368M41.395 48.7754L59.1469 62.2965M46.1193 43.6086L61.1716 60.0822M51.6902 39.3684L63.5591 58.265M57.9287 36.1911L66.2327 56.9033M64.6342 34.1788L69.1066 56.0409M71.5914 33.3962L72.0882 55.7054M111.172 11.6102L88.9934 46.3096M121.391 19.5164L93.3729 49.698M130.034 29.1202L97.077 53.8139M136.823 40.113L99.9867 58.5251M141.541 52.1413L102.008 63.6801M144.035 64.8187L103.077 69.1133M144.225 77.7376L103.159 74.6499M142.105 90.4829L102.25 80.1122M137.744 102.645L100.381 85.3245M131.281 113.833L97.6112 90.1192M122.924 123.686L94.0298 94.3423M112.942 131.89L89.7518 97.8581M101.656 138.179L84.9149 100.553M89.4279 142.352L79.6743 102.342M76.6514 144.275L74.1987 103.166M63.737 143.885L68.6639 102.999M51.0996 141.196L63.248 101.846M39.1456 136.293L58.1248 99.7451M28.2591 129.335L53.4592 96.7629M18.79 120.544L49.401 92.9956M11.0427 110.204L46.0807 88.5642M5.2661 98.6472L43.605 83.6112M1.64595 86.2444L42.0535 78.2957M0.298584 73.3945L41.4761 72.7886M1.2673 60.5105L41.8912 67.2669M4.52097 48.0066L43.2857 61.9081M9.95502 36.2846L45.6145 56.8844M17.3948 25.7212L48.803 52.3572M26.6012 16.656L52.7486 48.4721M37.2782 9.3804L57.3245 45.354M49.0828 4.12815L62.3836 43.103M61.6355 1.06809L67.7633 41.7916M74.5329 0.298584L73.2908 41.4618M87.3605 1.84437L78.7883 42.1243M99.7058 5.65575L84.0792 43.7577M117.586 43.5413L91.8658 60.0671M122.027 52.043L93.7689 63.7106M124.878 61.2009L94.9908 67.6355M126.048 70.7207L95.4923 71.7154M125.499 80.2965L95.2572 75.8193M123.25 89.6205L94.2932 79.8153M119.372 98.393L92.6311 83.5749M113.989 106.332L90.3244 86.9774M107.276 113.182L87.4472 89.9132M99.4473 118.724L84.0921 92.2882M90.7549 122.779L80.3668 94.0259M81.4783 125.216L76.3911 95.0705M71.9156 125.958L72.2928 95.3885M62.374 124.98L68.2035 94.9695M53.1603 122.315L64.2548 93.8271M44.5707 118.047L60.5735 91.998M36.8812 112.314L57.278 89.541M30.3389 105.3L54.4742 86.535M25.1541 97.2304L52.2522 83.0767M21.4936 88.3649L50.6833 79.2772M19.4748 78.9883L49.8181 75.2586M19.1627 69.4019L49.6844 71.1502M20.5674 59.9138L50.2864 67.0838M23.6437 50.829L51.6048 63.1904M28.2926 42.4395L53.5972 59.5949M34.3649 35.0149L56.1996 56.4129M41.6653 28.7939L59.3284 53.7468M49.9592 23.9764L62.8829 51.6821M58.98 20.7172L66.7489 50.2853M68.4377 19.1212L70.8023 49.6013M78.0285 19.2395L74.9126 49.652M87.444 21.0684L78.9478 50.4359M96.3816 24.5492L82.7782 51.9276M104.554 29.5699L86.2807 54.0793M111.699 35.9692L89.3427 56.8219" stroke="#F6F4ED" stroke-width="0.597222" stroke-linecap="round" stroke-linejoin="round"></path>
</svg>