<?xml version="1.0" encoding="UTF-8"?>
<svg id="Layer_2" data-name="Layer 2" xmlns="http://www.w3.org/2000/svg" viewBox="0 0 168.02 149.78">
  <defs>
    <style>
      .cls-1 {
        fill: #fff;
      }

      .cls-2 {
        fill: #e5bc10;
      }
    </style>
  </defs>
  <g id="Layer_2-2" data-name="Layer 2">
    <g id="Layer_1-2" data-name="Layer 1-2">
      <g>
        <path class="cls-2" d="M151.67,46.81h-32.65c-11.21,0-20.92,7.79-23.35,18.74l-5.05,22.76c-4.32,19.51-21.62,33.39-41.6,33.39h-21c-1.57,0-2.55,1.7-1.76,3.06l9.66,16.71c2.97,5.14,8.47,8.31,14.41,8.31h67.38c5.94,0,11.44-3.17,14.41-8.31l33.67-58.25c2.98-5.15,2.98-11.51,0-16.66l-10.08-17.43c-.83-1.44-2.37-2.33-4.03-2.33h0Z"/>
        <path class="cls-1" d="M16.35,102.97h32.64c11.22,0,20.94-7.8,23.37-18.75l5.04-22.74c4.33-19.51,21.63-33.4,41.61-33.4h20.99c1.57,0,2.55-1.7,1.77-3.06l-9.66-16.71c-2.97-5.14-8.46-8.31-14.41-8.31H50.32c-5.94,0-11.43,3.17-14.41,8.31L2.24,66.56c-2.98,5.15-2.98,11.5,0,16.66l10.07,17.43c.83,1.44,2.37,2.33,4.03,2.33h.01Z"/>
      </g>
    </g>
  </g>
</svg>