<?xml version="1.0" encoding="UTF-8"?>
<svg id="Layer_2" data-name="Layer 2" xmlns="http://www.w3.org/2000/svg" viewBox="0 0 441.08 75.74">
  <defs>
    <style>
      .cls-1 {
        fill: #e5bc10;
        stroke-width: 0px;
      }
    </style>
  </defs>
  <g id="Layer_1-2" data-name="Layer 1">
    <g>
      <g>
        <path class="cls-1" d="M8.26,52.07h16.51c5.67,0,10.58-3.94,11.81-9.48l2.55-11.51c2.19-9.86,10.93-16.88,21.04-16.88h10.62c.79,0,1.29-.86.89-1.55l-4.88-8.45c-1.5-2.6-4.28-4.2-7.29-4.2H25.44c-3.01,0-5.78,1.6-7.29,4.2L1.13,33.66c-1.51,2.61-1.51,5.82,0,8.42l5.09,8.81c.42.73,1.2,1.18,2.04,1.18Z"/>
        <path class="cls-1" d="M76.69,23.67h-16.5c-5.67,0-10.59,3.94-11.82,9.48l-2.55,11.5c-2.19,9.87-10.94,16.89-21.04,16.89h-10.61c-.79,0-1.29.86-.89,1.55l4.88,8.45c1.5,2.6,4.28,4.2,7.28,4.2h34.07c3,0,5.78-1.6,7.28-4.2l17.03-29.45c1.51-2.61,1.51-5.82,0-8.42l-5.09-8.81c-.42-.73-1.2-1.18-2.04-1.18Z"/>
      </g>
      <g>
        <path class="cls-1" d="M121.09,59.41c-2.27,0-4.51-.28-6.71-.87-2.2-.59-4.24-1.41-6.12-2.5-1.57-.91-2.94-1.93-4.12-3.08-.23-.23-.45-.93.05-1.43,1.59-1.61,5.25-5.31,5.5-5.57.32-.33.94-.41,1.36,0,1.11,1.06,2.4,1.89,3.84,2.53,1.76.77,3.66,1.15,5.72,1.15,1.43,0,2.53-.21,3.3-.64.77-.42,1.15-1,1.15-1.75,0-.95-.46-1.69-1.39-2.18-.93-.5-2.1-.96-3.53-1.35-1.43-.4-2.94-.84-4.53-1.31-1.58-.47-3.1-1.14-4.52-1.99-1.43-.85-2.6-2.03-3.5-3.53-.9-1.51-1.35-3.43-1.35-5.76,0-2.49.64-4.65,1.91-6.48,1.27-1.83,3.08-3.27,5.41-4.33,2.32-1.06,5.06-1.58,8.17-1.58,3.29,0,6.32.57,9.1,1.71,2.46,1.01,4.52,2.46,6.18,4.31.25.28.45.9-.01,1.37-1.53,1.53-5.31,5.37-5.56,5.63-.31.33-.95.45-1.43-.04-1.03-1.04-2.16-1.78-3.38-2.25-1.51-.59-2.99-.88-4.41-.88s-2.41.2-3.1.6c-.7.39-1.04.97-1.04,1.71,0,.8.45,1.43,1.35,1.91.9.48,2.07.91,3.5,1.27,1.42.37,2.94.83,4.52,1.35,1.59.53,3.1,1.24,4.53,2.15,1.43.9,2.59,2.1,3.49,3.61.9,1.5,1.35,3.48,1.35,5.91,0,3.76-1.41,6.75-4.25,8.98-2.84,2.22-6.66,3.33-11.48,3.33Z"/>
        <path class="cls-1" d="M168.96,37.68c.16.49,5.56,16.54,6.76,20.09.15.44.51.69.96.69h8.48c.36,0,.8-.23.94-.66,1.71-4.95,12.53-36.22,12.66-36.64.15-.46-.1-1.31-.96-1.31h-9.76c-.34,0-.82.24-.95.67-1.04,3.5-5.82,19.59-5.99,20.14-.16.5-.81.49-.98,0-.14-.44-5.48-16.71-6.61-20.17-.13-.41-.48-.64-.93-.64h-8.4c-.33,0-.8.23-.94.65-1.13,3.47-6.4,19.68-6.57,20.22s-.82.5-.99-.04c-.14-.43-4.97-16.87-5.96-20.23-.11-.38-.6-.6-.92-.6h-9.78c-.85,0-1.11.85-.97,1.25.14.39,12.69,36.69,12.69,36.69,0,0,.25.68.96.68h8.41c.41,0,.8-.25.95-.7,1.22-3.57,6.71-19.62,6.87-20.08.19-.52.81-.55.99,0Z"/>
        <path class="cls-1" d="M227.51,20.85v1.44c0,.5-.57.64-.86.35-.81-.8-1.67-1.55-2.75-2.08-2.1-1.01-4.44-1.51-7.03-1.51-3.55,0-6.71.88-9.5,2.62-2.78,1.75-4.98,4.14-6.59,7.15-1.61,3.02-2.42,6.46-2.42,10.32s.81,7.31,2.42,10.32c1.61,3.03,3.81,5.41,6.59,7.15,2.79,1.75,5.94,2.62,9.5,2.62,2.59,0,4.95-.5,7.07-1.51,1.03-.49,1.93-1.1,2.75-1.79.28-.24.83-.12.83.38v1.13c0,.49.4,1,1,1h9.91c.52,0,1-.36,1-1V20.85c0-.55-.48-1-1-1h-9.91c-.62,0-1,.52-1,1ZM225.6,45.71c-1.58,1.72-3.68,2.57-6.28,2.57-1.64,0-3.13-.39-4.45-1.19-1.32-.79-2.35-1.88-3.1-3.25-.74-1.38-1.11-2.95-1.11-4.69s.38-3.39,1.15-4.76c.77-1.38,1.81-2.45,3.1-3.22,1.3-.77,2.8-1.15,4.49-1.15s3.19.38,4.49,1.15c1.29.77,2.3,1.84,3.02,3.22.72,1.37,1.07,2.97,1.07,4.76,0,2.65-.8,4.83-2.38,6.56Z"/>
        <path class="cls-1" d="M274.78,20.93c-.61-.41-1.25-.77-1.94-1.04-1.4-.56-3.04-.84-4.88-.84-3.77,0-6.81.99-9.11,2.96-.28.24-.82.11-.82-.39v-.81c0-.43-.38-.97-1-.97h-10.16c-.45,0-1,.36-1,1v36.6c0,.46.38,1,1,1h10.16c.67,0,1-.56,1-1.05v-20.16c0-2.48.6-4.35,1.79-5.6,1.19-1.24,2.79-1.87,4.8-1.87,1.01,0,1.91.16,2.7.47.44.18.84.4,1.2.66.28.21,1.04.26,1.36-.25.26-.42,3.91-6.33,5.2-8.42.28-.46.05-1.07-.3-1.31Z"/>
        <path class="cls-1" d="M333.37,27.2c-1.45-2.56-3.48-4.58-6.08-6.03-2.59-1.45-5.69-2.18-9.29-2.18s-6.44.75-8.98,2.26c-1.34.79-2.46,1.89-3.47,3.13-.22.27-.62.27-.84,0-1.02-1.24-2.13-2.34-3.47-3.13-2.54-1.51-5.56-2.26-9.06-2.26s-6.56.73-9.21,2.18c-2.64,1.45-4.68,3.47-6.12,6.03-1.43,2.57-2.15,5.52-2.15,8.86v21.4c0,.49.38,1,1,1h10.16c.56,0,1-.41,1-1v-20.84c0-2.17.54-3.85,1.62-5.05,1.09-1.19,2.58-1.79,4.49-1.79s3.39.6,4.45,1.79c1.06,1.19,1.58,2.88,1.58,5.05v20.8c0,.53.38,1.05,1,1.05h10.15c.51,0,1.01-.41,1.01-1v-20.84c0-2.17.54-3.85,1.62-5.05,1.09-1.19,2.58-1.79,4.49-1.79s3.4.6,4.49,1.79c1.08,1.19,1.62,2.88,1.62,5.05v20.84c0,.49.38,1,1.01,1h10.15c.53,0,1-.42,1-1v-21.4c0-3.34-.74-6.29-2.19-8.86Z"/>
        <path class="cls-1" d="M347.79,15.71c-2.24,0-4.1-.76-5.56-2.29-1.47-1.53-2.2-3.38-2.2-5.57s.72-4.11,2.2-5.6C343.69.75,345.54,0,347.79,0s4.08.75,5.52,2.24c1.42,1.5,2.15,3.37,2.15,5.6s-.72,4.04-2.15,5.57c-1.44,1.53-3.28,2.29-5.52,2.29ZM341.67,57.46V20.85c0-.45.38-1,1-1h10.15c.52,0,1,.39,1,1v36.6c0,.57-.44,1-1,1h-10.15c-.44,0-1-.36-1-1Z"/>
        <path class="cls-1" d="M359.93,57.46v-20.68c0-3.55.78-6.66,2.34-9.33,1.56-2.67,3.73-4.75,6.51-6.24,2.79-1.48,6-2.22,9.66-2.22s6.93.74,9.69,2.22c2.75,1.48,4.9,3.55,6.44,6.2,1.53,2.64,2.3,5.77,2.3,9.37v20.68c0,.49-.38,1-1,1h-10.14c-.42,0-1.01-.33-1.01-1v-20.44c0-2.23-.54-3.99-1.63-5.29-1.08-1.29-2.63-1.95-4.64-1.95s-3.64.66-4.73,1.95c-1.08,1.3-1.62,3.06-1.62,5.29v20.44c0,.62-.53,1-1.01,1h-10.14c-.56,0-1-.45-1-1Z"/>
        <path class="cls-1" d="M428.99,20.86v.44c0,.47-.51.6-.78.42-.64-.45-1.33-.84-2.06-1.19-2.09-.98-4.46-1.47-7.1-1.47-3.55,0-6.7.84-9.46,2.5-2.75,1.68-4.92,3.95-6.52,6.83-1.58,2.9-2.38,6.14-2.38,9.74s.8,6.78,2.38,9.69c1.59,2.92,3.76,5.22,6.52,6.91,2.75,1.7,5.9,2.54,9.46,2.54,2.59,0,4.94-.5,7.06-1.51.75-.35,1.44-.76,2.09-1.21.28-.19.8-.09.8.41v1.57c0,3.93-3.19,7.11-7.11,7.11h-16.87c-.46,0-1.01.38-1.01,1.01v10.08c0,.53.44,1,1.01,1h16.87c10.59,0,19.2-8.62,19.2-19.2V20.86c0-.57-.47-1.01-1-1.01h-10.09c-.62,0-1,.53-1,1.01ZM428.6,42.37c-.66,1.24-1.61,2.24-2.86,2.98-1.25.75-2.71,1.11-4.41,1.11s-3.17-.36-4.41-1.11c-1.24-.74-2.21-1.76-2.9-3.06-.7-1.3-1.04-2.68-1.04-4.17,0-1.59.34-3.02,1.04-4.29.69-1.27,1.67-2.28,2.94-3.02,1.27-.75,2.72-1.12,4.37-1.12s3.16.37,4.41,1.12c1.24.74,2.2,1.75,2.86,3.02.67,1.27,1,2.69,1,4.29s-.33,3.01-1,4.25Z"/>
      </g>
    </g>
  </g>
</svg>